#!OML:ASF H:\Terrain\Patient Classification 1\Takeo\Monday\TakeoMonday.ASF
:FULLY-SPECIFIED
:DEGREES
70
root 9.5194 17.4407 -1.00314 7.00956 13.7756 2.356
lowerback 22.0403 -0.91803 0.608091
upperback 8.23163 -0.930624 0.761343
thorax -3.32473 -0.42156 0.691204
lowerneck -12.0739 -10.6484 -8.17105
upperneck 6.88597 -14.223 11.5997
head 5.47361 -6.53778 3.60455
rclavicle 2.70347e-014 1.19271e-014
rhumerus 5.10565 6.28639 -78.3159
rradius 37.2412
rwrist -8.17138
rhand -31.4069 28.5682
rfingers 7.12502
rthumb -4.67607 -1.36017
lclavicle 2.70347e-014 1.19271e-014
lhumerus -25.9666 -4.49227 92.0153
lradius 59.0706
lwrist 30.4527
lhand -27.7052 17.9606
lfingers 7.12502
lthumb -1.10123 47.9375
rfemur -30.8413 -1.03381 12.4148
rtibia 34.9687
rfoot -9.12603 -14.0565
rtoes 2.37215
lfemur -20.2293 3.54025 -26.2341
ltibia 34.6658
lfoot -17.1556 13.0649
ltoes -7.25515
71
root 9.48833 17.405 -1.03296 7.5495 13.9752 2.18827
lowerback 22.7374 -0.915431 1.27259
upperback 8.31936 -0.767032 0.881624
thorax -3.58567 -0.331636 0.410566
lowerneck -11.9338 -10.6199 -8.05253
upperneck 6.34278 -14.1703 11.6896
head 5.27598 -6.52538 3.63711
rclavicle -6.75868e-015 3.1408e-014
rhumerus 6.25065 6.10912 -77.7144
rradius 37.0847
rwrist -8.13793
rhand -31.6785 28.8426
rfingers 7.12502
rthumb -4.93835 -1.07982
lclavicle -6.75868e-015 3.1408e-014
lhumerus -25.8078 -4.63922 92.009
lradius 59.7433
lwrist 30.4235
lhand -28.0972 17.7035
lfingers 7.12502
lthumb -1.47981 47.6781
rfemur -32.03 -1.38675 12.6895
rtibia 35.8177
rfoot -9.50585 -13.9022
rtoes 3.7273
lfemur -21.6488 3.49815 -25.9715
ltibia 35.9389
lfoot -17.8623 12.5017
ltoes -5.26205
72
root 9.45491 17.367 -1.05893 8.05104 13.9712 2.23275
lowerback 23.3797 -0.820644 1.58369
upperback 8.57441 -0.557348 0.960693
thorax -3.62838 -0.222638 0.270594
lowerneck -12.1657 -10.6327 -8.01669
upperneck 5.99648 -14.1576 11.7844
head 5.2109 -6.51548 3.65772
rclavicle 8.34896e-015 3.18055e-015
rhumerus 7.70185 6.0736 -77.0126
rradius 36.7961
rwrist -8.2893
rhand -31.8726 29.3374
rfingers 7.12502
rthumb -5.1257 -0.580592
lclavicle 8.34896e-015 3.18055e-015
lhumerus -25.4224 -4.89846 91.9692
lradius 60.3621
lwrist 30.7065
lhand -28.5165 17.1618
lfingers 7.12502
lthumb -1.88472 47.1333
rfemur -33.1771 -1.6883 12.785
rtibia 36.6835
rfoot -9.68903 -13.6269
rtoes 4.55657
lfemur -22.9471 3.65999 -25.9713
ltibia 37.216
lfoot -18.6144 11.9161
ltoes -4.60541
73
root 9.42116 17.3219 -1.08311 8.49322 13.9092 2.13393
lowerback 23.9924 -0.763922 1.9688
upperback 8.89439 -0.378361 1.04768
thorax -3.58086 -0.126666 0.102009
lowerneck -12.4292 -10.5902 -7.90082
upperneck 5.66408 -14.0743 11.805
head 5.13664 -6.47238 3.65078
rclavicle -2.06736e-014 -7.15625e-015
rhumerus 9.33046 5.92189 -76.5192
rradius 36.3386
rwrist -8.24919
rhand -31.8034 29.3349
rfingers 7.12502
rthumb -5.05893 -0.584741
lclavicle -2.06736e-014 -7.15625e-015
lhumerus -25.0672 -5.11407 91.7966
lradius 61.2056
lwrist 30.9969
lhand -28.6275 16.5287
lfingers 7.12502
lthumb -1.99194 46.4991
rfemur -34.3543 -1.9387 13.0496
rtibia 37.5866
rfoot -9.97246 -13.3207
rtoes 5.43023
lfemur -24.2012 4.00177 -25.8645
ltibia 38.4288
lfoot -19.088 11.4356
ltoes -4.92035
74
root 9.38842 17.2778 -1.10276 9.25216 13.894 2.18475
lowerback 24.287 -0.727852 2.25911
upperback 9.15363 -0.254971 1.12197
thorax -3.43978 -0.0585935 -0.0148448
lowerneck -12.2571 -10.4536 -7.80113
upperneck 4.84896 -13.8391 11.8032
head 4.82737 -6.38726 3.68655
rclavicle -2.70347e-014 -4.77083e-015
rhumerus 11.1379 5.68799 -76.0147
rradius 35.7627
rwrist -8.01335
rhand -31.9168 28.6908
rfingers 7.12502
rthumb -5.16843 -1.22613
lclavicle -2.70347e-014 -4.77083e-015
lhumerus -24.7418 -5.00709 91.6519
lradius 62.1484
lwrist 31.0626
lhand -28.2946 16.3085
lfingers 7.12502
lthumb -1.67047 46.2817
rfemur -35.907 -2.29402 13.173
rtibia 38.5952
rfoot -10.0981 -13.0668
rtoes 5.36614
lfemur -25.7691 4.37201 -25.991
ltibia 39.6056
lfoot -19.0398 11.5312
ltoes -6.45592
75
root 9.35603 17.2339 -1.12702 10.1618 13.8543 2.30037
lowerback 24.5404 -0.665412 2.56663
upperback 9.32479 -0.0964883 1.1595
thorax -3.37221 0.0265913 -0.190787
lowerneck -12.0846 -10.3528 -7.63469
upperneck 4.05764 -13.657 11.7062
head 4.51988 -6.33069 3.67692
rclavicle 5.1684e-015 7.95139e-016
rhumerus 12.773 5.56498 -75.3282
rradius 35.4491
rwrist -8.06298
rhand -32.1449 28.4537
rfingers 7.12502
rthumb -5.38864 -1.45774
lclavicle 5.1684e-015 7.95139e-016
lhumerus -24.509 -4.91277 91.5502
lradius 63.0871
lwrist 31.3039
lhand -28.0993 16.0468
lfingers 7.12502
lthumb -1.48178 46.0214
rfemur -37.651 -2.69825 13.2589
rtibia 39.6808
rfoot -10.1107 -12.7118
rtoes 4.53344
lfemur -27.5486 4.70381 -26.2238
ltibia 40.8508
lfoot -18.9703 11.9066
ltoes -9.48854
76
root 9.32532 17.1716 -1.15699 11.1221 13.8078 2.65257
lowerback 24.9923 -0.583656 2.73167
upperback 9.37478 0.0591228 1.09559
thorax -3.53268 0.106531 -0.394609
lowerneck -12.0871 -10.364 -7.4771
upperneck 3.59668 -13.6489 11.639
head 4.36233 -6.34215 3.64377
rclavicle 1.27222e-014 1.59028e-014
rhumerus 13.8559 5.59559 -74.5715
rradius 35.4782
rwrist -8.3202
rhand -32.3771 29.1894
rfingers 7.12502
rthumb -5.6128 -0.71623
lclavicle 1.27222e-014 1.59028e-014
lhumerus -24.5584 -5.01518 91.4222
lradius 64.1175
lwrist 31.7165
lhand -27.8024 15.8291
lfingers 7.12502
lthumb -1.19506 45.8055
rfemur -39.4115 -3.29911 13.1319
rtibia 40.8219
rfoot -10.3333 -12.1352
rtoes 4.36402
lfemur -29.2967 4.75679 -26.6329
ltibia 42.1568
lfoot -19.5331 11.6582
ltoes -9.23467
77
root 9.29264 17.1008 -1.18265 12.0189 13.9303 2.74611
lowerback 25.4019 -0.592735 3.07924
upperback 9.42858 0.147882 1.1351
thorax -3.66668 0.155186 -0.574067
lowerneck -11.776 -10.3406 -7.55724
upperneck 2.96204 -13.592 11.9276
head 4.1422 -6.33236 3.77576
rclavicle 1.35174e-014 -2.38542e-014
rhumerus 14.9828 5.66327 -73.8826
rradius 35.3483
rwrist -8.4434
rhand -32.5869 29.9643
rfingers 7.12502
rthumb -5.81542 0.0640941
lclavicle 1.35174e-014 -2.38542e-014
lhumerus -24.5639 -4.92305 91.3044
lradius 64.9471
lwrist 31.7964
lhand -27.2441 16.0881
lfingers 7.12502
lthumb -0.655862 46.0669
rfemur -41.1556 -3.91543 13.3203
rtibia 42.0554
rfoot -10.7167 -11.7012
rtoes 3.93581
lfemur -31.0108 4.72588 -26.6914
ltibia 43.455
lfoot -20.2216 10.8269
ltoes -5.94929
78
root 9.26004 17.0418 -1.20636 12.7325 14.1929 2.52542
lowerback 25.892 -0.699384 3.77412
upperback 9.55172 0.206329 1.25335
thorax -3.75792 0.194952 -0.858418
lowerneck -11.7294 -10.3713 -7.6957
upperneck 2.56834 -13.6054 12.2105
head 4.04849 -6.3426 3.88995
rclavicle 3.26007e-014 2.38542e-014
rhumerus 16.4279 5.46291 -73.33
rradius 35.0205
rwrist -8.32875
rhand -32.6703 29.8684
rfingers 7.12502
rthumb -5.8959 -0.0295268
lclavicle 3.26007e-014 2.38542e-014
lhumerus -24.294 -5.01241 91.1571
lradius 65.5071
lwrist 31.8411
lhand -27.5673 15.6651
lfingers 7.12502
lthumb -0.968043 45.6426
rfemur -42.7587 -4.487 13.8669
rtibia 43.3512
rfoot -11.2029 -11.329
rtoes 2.30248
lfemur -32.6528 4.76672 -26.443
ltibia 44.7355
lfoot -20.6337 10.3266
ltoes -4.95527
79
root 9.22983 16.9813 -1.23112 13.6105 14.1443 3.26006
lowerback 26.5001 -0.636208 3.64765
upperback 9.68677 0.275812 1.08234
thorax -3.8977 0.231417 -0.992748
lowerneck -11.9268 -10.4308 -7.57118
upperneck 2.30331 -13.6585 12.0668
head 3.98425 -6.37615 3.81976
rclavicle -3.18055e-015 -1.59028e-014
rhumerus 17.7743 5.00198 -72.8808
rradius 34.6915
rwrist -8.03126
rhand -32.8867 29.8591
rfingers 7.12502
rthumb -6.10486 -0.0329541
lclavicle -3.18055e-015 -1.59028e-014
lhumerus -24.1055 -5.38883 90.954
lradius 66.3129
lwrist 32.0228
lhand -27.9229 15.0604
lfingers 7.12502
lthumb -1.31141 45.0361
rfemur -44.392 -5.1428 13.3702
rtibia 44.6092
rfoot -11.5276 -10.8001
rtoes 1.08763
lfemur -34.194 4.78178 -27.3042
ltibia 45.9966
lfoot -20.8793 10.3608
ltoes -5.51688
80
root 9.19719 16.9097 -1.25649 14.4216 13.9474 4.10063
lowerback 27.1781 -0.525902 3.21405
upperback 9.83927 0.3322 0.962246
thorax -4.05378 0.255534 -0.893706
lowerneck -11.9653 -10.3481 -7.54885
upperneck 1.94173 -13.5045 11.9047
head 3.85107 -6.31751 3.79095
rclavicle -4.21423e-014 -3.26007e-014
rhumerus 19.1041 4.71901 -72.4247
rradius 34.2892
rwrist -7.73586
rhand -33.1494 30.4092
rfingers 7.12502
rthumb -6.35849 0.524677
lclavicle -4.21423e-014 -3.26007e-014
lhumerus -24.1291 -5.4106 90.8233
lradius 67.2579
lwrist 32.0626
lhand -27.8265 15.0479
lfingers 7.12502
lthumb -1.21831 45.0242
rfemur -46.0157 -5.66579 12.7757
rtibia 45.8289
rfoot -11.4418 -10.4422
rtoes -0.0390344
lfemur -35.6081 4.83693 -28.2733
ltibia 47.2454
lfoot -21.2069 10.3723
ltoes -5.43933
81
root 9.16016 16.8489 -1.27906 14.8442 14.0736 3.6117
lowerback 27.8874 -0.569419 3.92798
upperback 10.0439 0.509812 1.27116
thorax -4.1449 0.349887 -1.01891
lowerneck -11.8579 -10.2951 -7.72996
upperneck 1.19719 -13.3594 12.0245
head 3.61596 -6.26894 3.89051
rclavicle 3.18055e-015 -2.38542e-015
rhumerus 20.6761 4.5829 -71.6707
rradius 33.9057
rwrist -7.67202
rhand -33.2964 30.278
rfingers 7.12502
rthumb -6.50038 0.397731
lclavicle 3.18055e-015 -2.38542e-015
lhumerus -24.0006 -5.24093 90.8839
lradius 68.0476
lwrist 32.0232
lhand -27.9623 15.0782
lfingers 7.12502
lthumb -1.34953 45.0537
rfemur -47.4141 -5.94005 13.6561
rtibia 47.0085
rfoot -11.5177 -10.3034
rtoes -0.556729
lfemur -37.0139 5.02392 -27.7593
ltibia 48.5349
lfoot -21.674 10.0934
ltoes -4.71339
82
root 9.12196 16.7891 -1.29813 15.4198 14.2348 3.19684
lowerback 28.4564 -0.564114 4.71794
upperback 10.2381 0.764655 1.50325
thorax -4.16757 0.485273 -1.29557
lowerneck -11.501 -10.2928 -7.74974
upperneck -0.0232469 -13.2879 12.2714
head 3.2055 -6.27305 4.01897
rclavicle -8.74653e-015 -6.36111e-015
rhumerus 22.3116 4.19377 -70.7462
rradius 33.4052
rwrist -7.37834
rhand -33.4419 29.93
rfingers 7.12502
rthumb -6.64082 0.0541719
lclavicle -8.74653e-015 -6.36111e-015
lhumerus -23.7324 -5.26963 90.9482
lradius 68.8285
lwrist 32.0263
lhand -27.9217 15.0636
lfingers 7.12502
lthumb -1.31031 45.0393
rfemur -48.8835 -6.11467 14.3862
rtibia 48.1386
rfoot -11.8246 -10.2073
rtoes 0.0901106
lfemur -38.6131 5.27273 -27.3655
ltibia 49.8895
lfoot -22.1105 9.82185
ltoes -4.07267
83
root 9.09057 16.7162 -1.31962 16.2265 14.4071 3.4852
lowerback 28.9435 -0.562365 5.05476
upperback 10.3985 0.889387 1.56989
thorax -4.19914 0.553982 -1.45598
lowerneck -11.3952 -10.451 -7.99955
upperneck -0.693848 -13.4287 12.4327
head 3.02971 -6.3625 4.11122
rclavicle -6.36111e-015 1.03368e-014
rhumerus 23.8622 3.57127 -69.8413
rradius 32.7249
rwrist -6.41705
rhand -33.5187 29.9963
rfingers 7.12502
rthumb -6.71493 0.122804
lclavicle -6.36111e-015 1.03368e-014
lhumerus -23.4727 -5.52931 91.0145
lradius 69.3641
lwrist 32.0713
lhand -27.6479 14.7725
lfingers 7.12502
lthumb -1.04588 44.7496
rfemur -50.4646 -6.54814 14.3595
rtibia 49.2408
rfoot -11.9187 -10.0416
rtoes -0.286577
lfemur -40.2951 5.25419 -27.7424
ltibia 51.2895
lfoot -22.4729 9.83158
ltoes -4.75746
